<?xml version="1.0" encoding="iso-8859-1"?>
<!-- Generator: Adobe Illustrator 19.0.0, SVG Export Plug-In . SVG Version: 6.00 Build 0)  -->
<svg version="1.1" id="Layer_1" xmlns="http://www.w3.org/2000/svg" xmlns:xlink="http://www.w3.org/1999/xlink" x="0px" y="0px"
	 viewBox="0 0 512 512" style="enable-background:new 0 0 512 512;" xml:space="preserve">
<path style="fill:#3E2C27;" d="M141.799,138.547c-2.176-0.455-21.821-4.931-41.569-22.21C82.073,100.45,60.43,70.322,60.43,17.006
	h31.353c0,77.217,54.23,90.351,56.539,90.873l-0.123-0.026L141.799,138.547z"/>
<path style="fill:#2E211D;" d="M370.201,138.547l-6.399-30.694l-0.123,0.026c2.309-0.522,56.539-13.655,56.539-90.873h31.353
	c0,53.316-21.643,83.444-39.799,99.331C392.022,133.616,372.377,138.092,370.201,138.547z"/>
<path style="fill:#B17E15;" d="M139.667,162.289c-0.617-0.193-62.301-19.495-112.894-35.534l-13.367-4.238l-5.696,12.814
	c-7.356,16.549-13.186,40.85,0.809,62.639c24.536,38.194,92.305,40.002,99.952,40.083L139.667,162.289z"/>
<path style="fill:#EFC589;" d="M108.801,206.701c-14.995-0.158-60.758-5.214-73.902-25.677c-4.034-6.281-4.115-13.51-2.935-19.738
	c47.155,14.911,97.782,30.751,98.341,30.926L108.801,206.701z"/>
<path style="fill:#835E10;" d="M372.333,162.289c0.617-0.193,62.301-19.495,112.894-35.534l13.367-4.238l5.696,12.814
	c7.355,16.549,13.186,40.85-0.809,62.639c-24.536,38.194-92.305,40.002-99.952,40.083L372.333,162.289z"/>
<path style="fill:#B19267;" d="M403.2,206.701c14.995-0.158,60.758-5.214,73.902-25.677c4.034-6.281,4.115-13.51,2.935-19.738
	c-47.155,14.911-97.782,30.751-98.341,30.926L403.2,206.701z"/>
<path style="fill:#EFC589;" d="M134.496,406.475c7.883,18.499,17.519,36.047,30.446,50.528
	c22.818,25.564,52.603,37.991,91.058,37.991s68.24-12.427,91.058-37.991c12.926-14.481,22.563-32.029,30.446-50.528
	c-32.182-22.13-75.41-34.793-121.504-34.793C209.909,371.683,166.68,384.344,134.496,406.475z"/>
<path style="fill:#B17E15;" d="M401.989,339.536c11.012-29.314,19.71-52.467,19.71-90.207c0-25.932-5.93-48.286-17.626-66.438
	c-10.303-15.992-25.109-28.785-44.007-38.021c-34.561-16.894-75.944-18.848-104.065-18.848s-69.504,1.953-104.065,18.848
	c-18.898,9.237-33.704,22.029-44.007,38.021c-11.696,18.152-17.626,40.506-17.626,66.438c0,37.74,8.697,60.894,19.71,90.207
	c3.669,9.766,7.463,19.865,11.392,31.671c3.922,11.787,8.168,23.712,13.092,35.267c32.183-22.13,75.411-34.793,121.504-34.793
	s89.322,12.662,121.504,34.793c4.925-11.556,9.17-23.481,13.092-35.267C394.526,359.401,398.32,349.302,401.989,339.536z"/>
<g>
	<path style="fill:#333333;" d="M183.253,253.784c0-11.515,9.23-20.84,20.573-20.84c11.357,0,20.587,9.326,20.587,20.84
		c0,11.513-9.229,20.847-20.587,20.847C192.484,274.63,183.253,265.297,183.253,253.784z"/>
	<path style="fill:#333333;" d="M206.859,428.319c0-9.06,7.263-16.397,16.187-16.397c8.936,0,16.197,7.337,16.197,16.397
		c0,9.058-7.261,16.402-16.197,16.402C214.122,444.721,206.859,437.377,206.859,428.319z"/>
</g>
<path style="fill:#B19267;" d="M256.001,371.683v123.311c38.455,0,68.24-12.427,91.058-37.991
	c12.926-14.481,22.563-32.029,30.446-50.528C345.322,384.344,302.093,371.683,256.001,371.683L256.001,371.683z"/>
<path style="fill:#835E10;" d="M404.072,182.891c-10.303-15.992-25.109-28.785-44.007-38.021
	c-34.561-16.894-75.944-18.848-104.065-18.848v245.661l0,0c46.093,0,89.322,12.662,121.504,34.793
	c4.925-11.556,9.17-23.481,13.092-35.267c3.93-11.807,7.723-21.906,11.392-31.671c11.012-29.314,19.71-52.467,19.71-90.207
	C421.699,223.397,415.769,201.043,404.072,182.891z"/>
<g>
	<path style="fill:#333333;" d="M328.748,253.784c0-11.6-9.29-21.003-20.729-21.003c-11.452,0-20.742,9.403-20.742,21.003
		c0,11.6,9.29,21.003,20.742,21.003C319.458,274.786,328.748,265.383,328.748,253.784z"/>
	<path style="fill:#333333;" d="M305.141,428.319c0-9.127-7.31-16.524-16.309-16.524c-9.011,0-16.32,7.397-16.32,16.524
		c0,9.126,7.31,16.524,16.32,16.524C297.832,444.843,305.141,437.446,305.141,428.319z"/>
</g>
<path style="fill:#3E2C27;" d="M334.824,173.517H177.177c-26.387,0-47.855-21.468-47.855-47.856v-4.924
	c0-26.388,21.468-47.856,47.855-47.856h157.647c26.387,0,47.855,21.468,47.855,47.856v4.924
	C382.679,152.05,361.211,173.517,334.824,173.517z"/>
<path style="fill:#2E211D;" d="M334.824,173.517h-78.824V72.882h78.824c26.387,0,47.855,21.468,47.855,47.856v4.924
	C382.679,152.05,361.211,173.517,334.824,173.517z"/>
<g>
</g>
<g>
</g>
<g>
</g>
<g>
</g>
<g>
</g>
<g>
</g>
<g>
</g>
<g>
</g>
<g>
</g>
<g>
</g>
<g>
</g>
<g>
</g>
<g>
</g>
<g>
</g>
<g>
</g>
</svg>
