<?xml version="1.0" encoding="iso-8859-1"?>
<!-- Generator: Adobe Illustrator 19.0.0, SVG Export Plug-In . SVG Version: 6.00 Build 0)  -->
<svg version="1.1" id="Layer_1" xmlns="http://www.w3.org/2000/svg" xmlns:xlink="http://www.w3.org/1999/xlink" x="0px" y="0px"
	 viewBox="0 0 512 512" style="enable-background:new 0 0 512 512;" xml:space="preserve">
<path style="fill:#FFAB00;" d="M78.695,205.792c-34.626-86.929,7.809-157.96,9.632-160.94l10.701-17.495l76.878,89.352
	L78.695,205.792z"/>
<path style="fill:#D37B93;" d="M106.461,194.731c-12.088-30.348-14.582-62.044-7.412-94.208c1.732-7.773,3.853-14.649,5.942-20.413
	l48.261,56.092L106.461,194.731z"/>
<path style="fill:#BD7F00;" d="M433.305,205.792c34.626-86.929-7.81-157.959-9.632-160.94l-10.702-17.495l-76.878,89.352
	L433.305,205.792"/>
<path style="fill:#9D5B6E;" d="M405.539,194.731c12.087-30.348,14.582-62.044,7.412-94.209c-1.732-7.773-3.853-14.648-5.942-20.413
	l-48.261,56.092L405.539,194.731"/>
<path style="fill:#FFAB00;" d="M256,479.379c-27.648,0-42.576-19.457-58.38-40.055c-6.993-9.114-14.223-18.538-23.307-27.622
	C145.602,382.992,19.723,297.204,18.454,296.34L0,283.779l18.647-12.274c21.598-14.215,36.29-38.337,51.848-63.876
	c16.614-27.276,33.795-55.48,61.766-77.797c32.122-25.627,72.597-38.085,123.74-38.085c51.141,0,91.617,12.458,123.739,38.085
	c27.972,22.317,45.152,50.521,61.766,77.797c15.556,25.539,30.25,49.661,51.847,63.876l18.648,12.274l-18.455,12.562
	c-1.268,0.864-127.147,86.651-155.858,115.362c-9.083,9.083-16.314,18.507-23.307,27.621
	C298.576,459.923,283.648,479.379,256,479.379"/>
<g>
	<path style="fill:#EFC589;" d="M314.38,439.324c6.993-9.114,14.223-18.538,23.307-27.621
		c28.712-28.712,154.59-114.499,155.858-115.362L512,283.78c-0.007-0.002-83.448-25.237-157.031-25.237
		c-78.298,0-68.313,155.755-66.711,209.614C298.033,460.622,306.087,450.134,314.38,439.324"/>
	<path style="fill:#EFC589;" d="M197.62,439.324c-6.993-9.114-14.223-18.538-23.307-27.622
		C145.602,382.992,19.723,297.204,18.454,296.34L0,283.779c0.007-0.002,83.448-25.237,157.031-25.237
		c78.299,0,68.313,155.755,66.711,209.614C213.967,460.622,205.913,450.134,197.62,439.324z"/>
</g>
<g>
	<path style="fill:#333333;" d="M379.117,306.97c0-9.565-7.66-17.319-17.093-17.319c-9.443,0-17.104,7.754-17.104,17.319
		c0,9.565,7.66,17.319,17.104,17.319C371.457,324.288,379.117,316.535,379.117,306.97"/>
	<path style="fill:#333333;" d="M167.079,306.97c0-9.565-7.66-17.319-17.093-17.319c-9.443,0-17.105,7.754-17.105,17.319
		c0,9.565,7.66,17.319,17.105,17.319C159.419,324.288,167.079,316.535,167.079,306.97z"/>
</g>
<path style="fill:#211915;" d="M256,484.643c-11.683,0-22.126-9.177-26.074-13.123c-3.963-3.961-13.181-14.454-13.181-26.312
	c0-9.701,4.832-17.076,13.605-20.767c5.848-2.461,13.28-3.464,25.649-3.464c12.37,0,19.801,1.003,25.65,3.464
	c8.773,3.691,13.605,11.066,13.605,20.767c0,11.858-9.218,22.351-13.181,26.312C278.126,475.465,267.682,484.643,256,484.643"/>
<path style="fill:#BDBDBF;" d="M295.719,94.573h0.002H295.719 M295.192,94.493c0.003,0,0.004,0.001,0.006,0.001
	C295.195,94.494,295.196,94.494,295.192,94.493 M294.668,94.416c0.003,0,0,0,0.003,0H294.668 M294.134,94.338
	c0.006,0.001,0.011,0.001,0.016,0.002C294.145,94.34,294.139,94.339,294.134,94.338 M293.597,94.261
	c0.008,0.001,0.022,0.003,0.03,0.004C293.618,94.264,293.607,94.263,293.597,94.261 M293.07,94.187
	c0.008,0.001,0.018,0.003,0.027,0.004C293.087,94.189,293.079,94.188,293.07,94.187 M292.54,94.114
	c0.008,0.001,0.016,0.002,0.025,0.003C292.557,94.117,292.547,94.115,292.54,94.114 M292.202,94.068
	c0.006,0.001,0.006,0.001,0.011,0.002C292.21,94.069,292.206,94.068,292.202,94.068 M292.005,94.041
	c0.011,0.001,0.019,0.003,0.031,0.004C292.025,94.044,292.016,94.043,292.005,94.041 M291.67,93.996
	c0.006,0.001,0.008,0.001,0.013,0.002C291.678,93.997,291.676,93.997,291.67,93.996 M291.489,93.972
	c0.003,0,0.006,0.001,0.009,0.001C291.496,93.973,291.491,93.972,291.489,93.972 M291.139,93.926
	c0.006,0.001,0.006,0.001,0.012,0.001C291.145,93.926,291.144,93.926,291.139,93.926 M290.597,93.856
	c0.011,0.001,0.025,0.003,0.036,0.005C290.621,93.859,290.608,93.857,290.597,93.856 M290.063,93.788
	c0.011,0.001,0.023,0.003,0.034,0.004C290.085,93.791,290.074,93.789,290.063,93.788 M289.522,93.72
	c0.017,0.002,0.027,0.003,0.044,0.005C289.553,93.723,289.535,93.721,289.522,93.72 M288.987,93.654
	c0.014,0.002,0.025,0.003,0.039,0.005C289.013,93.657,289,93.655,288.987,93.654 M288.437,93.588
	c0.02,0.002,0.042,0.005,0.062,0.007C288.478,93.593,288.457,93.59,288.437,93.588 M288.111,93.549c0.003,0,0.008,0.001,0.011,0.001
	C288.118,93.55,288.114,93.55,288.111,93.549 M287.899,93.524c0.02,0.002,0.041,0.005,0.061,0.007
	C287.939,93.529,287.919,93.527,287.899,93.524 M287.361,93.462c0.017,0.002,0.035,0.004,0.052,0.006
	C287.396,93.466,287.378,93.464,287.361,93.462 M287.029,93.424c0.014,0.002,0.026,0.003,0.041,0.005
	C287.056,93.427,287.042,93.425,287.029,93.424 M286.822,93.4c0.017,0.002,0.034,0.004,0.051,0.006
	C286.855,93.404,286.838,93.402,286.822,93.4 M286.487,93.364c0.011,0.001,0.029,0.003,0.041,0.005
	C286.515,93.367,286.5,93.365,286.487,93.364 M286.277,93.34c0.02,0.002,0.035,0.004,0.055,0.006
	C286.313,93.344,286.296,93.342,286.277,93.34 M285.938,93.303c0.02,0.002,0.041,0.005,0.061,0.007
	C285.979,93.307,285.959,93.305,285.938,93.303 M285.732,93.281c0.017,0.002,0.039,0.004,0.056,0.006
	C285.769,93.285,285.751,93.283,285.732,93.281 M285.398,93.245c0.017,0.002,0.036,0.004,0.054,0.006
	C285.433,93.248,285.417,93.247,285.398,93.245 M285.186,93.222c0.02,0.002,0.038,0.004,0.058,0.006
	C285.225,93.226,285.205,93.224,285.186,93.222 M284.843,93.186c0.029,0.003,0.051,0.005,0.08,0.008
	C284.896,93.191,284.869,93.189,284.843,93.186 M284.626,93.163c0.026,0.003,0.047,0.005,0.073,0.008
	C284.675,93.168,284.651,93.166,284.626,93.163 M284.292,93.129c0.029,0.003,0.064,0.006,0.092,0.009
	C284.354,93.135,284.322,93.132,284.292,93.129 M284.06,93.106c0.032,0.003,0.064,0.007,0.096,0.01
	C284.124,93.113,284.092,93.109,284.06,93.106 M283.74,93.074c0.032,0.003,0.066,0.007,0.098,0.01
	C283.804,93.08,283.774,93.077,283.74,93.074 M283.499,93.05c0.035,0.003,0.074,0.007,0.108,0.011
	C283.571,93.057,283.535,93.053,283.499,93.05 M283.198,93.02c0.029,0.003,0.055,0.005,0.084,0.008
	C283.254,93.026,283.227,93.023,283.198,93.02 M282.643,92.966c0.032,0.003,0.062,0.006,0.094,0.009
	C282.705,92.972,282.672,92.969,282.643,92.966 M282.321,92.936c0.041,0.004,0.086,0.008,0.126,0.012
	C282.402,92.944,282.365,92.94,282.321,92.936 M282.091,92.914c0.032,0.003,0.065,0.006,0.097,0.009
	C282.155,92.92,282.123,92.917,282.091,92.914 M281.773,92.885c0.029,0.003,0.064,0.006,0.093,0.009
	C281.834,92.89,281.806,92.888,281.773,92.885 M281.532,92.863c0.035,0.003,0.071,0.006,0.106,0.01
	C281.6,92.869,281.568,92.866,281.532,92.863 M281.217,92.835c0.038,0.003,0.077,0.007,0.115,0.01
	C281.294,92.842,281.255,92.838,281.217,92.835 M280.988,92.814c0.032,0.003,0.061,0.005,0.093,0.008
	C281.05,92.82,281.018,92.817,280.988,92.814 M280.664,92.786c0.035,0.003,0.068,0.006,0.103,0.009
	C280.732,92.792,280.699,92.789,280.664,92.786 M280.427,92.765c0.035,0.003,0.068,0.006,0.103,0.009
	C280.496,92.771,280.462,92.768,280.427,92.765 M280.108,92.738c0.035,0.003,0.068,0.006,0.104,0.009
	C280.177,92.744,280.142,92.741,280.108,92.738 M279.859,92.717c0.038,0.003,0.078,0.007,0.116,0.01
	C279.936,92.723,279.897,92.72,279.859,92.717 M279.547,92.69c0.041,0.003,0.081,0.007,0.122,0.01
	C279.629,92.697,279.587,92.694,279.547,92.69 M279.269,92.667c0.053,0.004,0.105,0.009,0.157,0.013
	C279.373,92.676,279.323,92.672,279.269,92.667 M278.989,92.645c0.044,0.004,0.084,0.007,0.128,0.01
	C279.075,92.651,279.032,92.648,278.989,92.645 M278.718,92.623c0.05,0.004,0.095,0.008,0.144,0.011
	C278.815,92.63,278.767,92.626,278.718,92.623 M278.43,92.6c0.041,0.003,0.081,0.006,0.122,0.01
	C278.512,92.606,278.471,92.603,278.43,92.6 M278.109,92.575c0.068,0.005,0.134,0.01,0.202,0.016
	C278.243,92.586,278.176,92.581,278.109,92.575 M277.87,92.557c0.041,0.003,0.088,0.007,0.129,0.01
	C277.954,92.563,277.914,92.56,277.87,92.557 M277.549,92.532c0.068,0.005,0.132,0.01,0.199,0.015
	C277.683,92.543,277.615,92.537,277.549,92.532 M277.309,92.514c0.041,0.003,0.085,0.006,0.126,0.009
	C277.391,92.521,277.351,92.518,277.309,92.514 M276.984,92.49c0.071,0.005,0.14,0.01,0.21,0.016
	C277.123,92.501,277.056,92.496,276.984,92.49 M276.737,92.472c0.05,0.004,0.1,0.007,0.149,0.011
	C276.837,92.48,276.785,92.476,276.737,92.472 M276.421,92.45c0.071,0.005,0.141,0.01,0.212,0.015
	C276.561,92.46,276.493,92.455,276.421,92.45 M276.169,92.432c0.05,0.003,0.104,0.007,0.153,0.011
	C276.272,92.439,276.219,92.435,276.169,92.432 M275.862,92.411c0.071,0.005,0.142,0.01,0.213,0.015
	C276.005,92.42,275.934,92.415,275.862,92.411 M275.604,92.393c0.05,0.003,0.105,0.007,0.154,0.011
	C275.706,92.4,275.656,92.396,275.604,92.393 M275.292,92.372c0.065,0.004,0.134,0.009,0.199,0.013
	C275.426,92.381,275.358,92.376,275.292,92.372 M275.031,92.354c0.056,0.004,0.109,0.007,0.164,0.011
	C275.141,92.362,275.085,92.358,275.031,92.354 M274.727,92.334c0.065,0.004,0.13,0.008,0.195,0.013
	C274.859,92.343,274.791,92.339,274.727,92.334 M274.462,92.318c0.059,0.004,0.112,0.007,0.171,0.011
	C274.576,92.326,274.521,92.322,274.462,92.318 M274.164,92.299c0.057,0.004,0.114,0.007,0.169,0.011
	C274.276,92.307,274.219,92.303,274.164,92.299 M273.87,92.281c0.066,0.004,0.131,0.008,0.195,0.012
	C274.001,92.289,273.933,92.285,273.87,92.281 M273.595,92.264c0.06,0.004,0.12,0.007,0.178,0.011
	C273.715,92.272,273.653,92.268,273.595,92.264 M273.295,92.246c0.069,0.004,0.138,0.008,0.206,0.012
	C273.43,92.255,273.365,92.251,273.295,92.246 M273.026,92.23c0.057,0.003,0.114,0.007,0.17,0.01
	C273.139,92.237,273.083,92.234,273.026,92.23 M272.706,92.212c0.075,0.004,0.151,0.009,0.226,0.013
	C272.857,92.221,272.781,92.216,272.706,92.212 M272.451,92.198c0.06,0.003,0.121,0.007,0.18,0.01
	C272.573,92.204,272.51,92.201,272.451,92.198 M272.139,92.18c0.075,0.004,0.155,0.009,0.23,0.013
	C272.293,92.189,272.216,92.184,272.139,92.18 M271.877,92.166c0.06,0.003,0.122,0.007,0.182,0.01
	C271.999,92.172,271.938,92.169,271.877,92.166 M271.568,92.149c0.078,0.004,0.152,0.008,0.23,0.012
	C271.723,92.157,271.645,92.153,271.568,92.149 M271.311,92.136c0.057,0.003,0.114,0.006,0.17,0.009
	C271.425,92.142,271.368,92.139,271.311,92.136 M270.998,92.12c0.075,0.004,0.154,0.008,0.229,0.012
	C271.151,92.127,271.075,92.123,270.998,92.12 M270.732,92.106c0.06,0.003,0.12,0.006,0.179,0.009
	C270.851,92.112,270.793,92.109,270.732,92.106 M270.423,92.091c0.078,0.004,0.156,0.008,0.234,0.011
	C270.58,92.098,270.499,92.095,270.423,92.091 M270.146,92.077c0.066,0.003,0.132,0.006,0.197,0.01
	C270.278,92.084,270.21,92.08,270.146,92.077 M269.854,92.063c0.078,0.004,0.157,0.007,0.235,0.011
	C270.01,92.071,269.932,92.067,269.854,92.063 M269.575,92.051c0.063,0.003,0.128,0.006,0.19,0.009
	C269.701,92.057,269.638,92.054,269.575,92.051 M269.278,92.038c0.078,0.004,0.156,0.007,0.235,0.011
	C269.433,92.045,269.357,92.042,269.278,92.038 M268.997,92.026c0.063,0.003,0.128,0.006,0.19,0.008
	C269.125,92.031,269.06,92.028,268.997,92.026 M268.709,92.013c0.076,0.003,0.146,0.006,0.222,0.01
	C268.858,92.019,268.782,92.016,268.709,92.013 M268.426,92.001c0.061,0.002,0.124,0.005,0.183,0.008
	C268.549,92.006,268.487,92.004,268.426,92.001 M268.127,91.989c0.064,0.003,0.131,0.005,0.193,0.008
	C268.256,91.994,268.192,91.991,268.127,91.989 M267.797,91.976c0.079,0.003,0.164,0.006,0.243,0.01
	C267.961,91.982,267.876,91.979,267.797,91.976 M267.545,91.966c0.076,0.003,0.149,0.006,0.224,0.009
	C267.695,91.971,267.62,91.969,267.545,91.966 M267.224,91.953c0.082,0.003,0.16,0.006,0.242,0.009
	C267.385,91.959,267.305,91.956,267.224,91.953 M266.965,91.944c0.07,0.003,0.137,0.005,0.207,0.008
	C267.104,91.949,267.032,91.946,266.965,91.944 M266.643,91.932c0.082,0.003,0.162,0.006,0.245,0.009
	C266.805,91.938,266.724,91.935,266.643,91.932 M266.382,91.923c0.07,0.002,0.142,0.005,0.212,0.007
	C266.522,91.928,266.454,91.925,266.382,91.923 M266.065,91.912c0.082,0.003,0.165,0.006,0.247,0.008
	C266.23,91.918,266.147,91.915,266.065,91.912 M265.797,91.903c0.073,0.002,0.139,0.005,0.212,0.007
	C265.938,91.908,265.869,91.906,265.797,91.903 M265.482,91.893c0.082,0.003,0.168,0.005,0.25,0.008
	C265.649,91.898,265.566,91.896,265.482,91.893 M265.215,91.885c0.07,0.002,0.141,0.004,0.211,0.007
	C265.356,91.889,265.285,91.887,265.215,91.885 M264.904,91.876c0.083,0.002,0.164,0.005,0.247,0.007
	C265.07,91.881,264.986,91.878,264.904,91.876 M264.63,91.868c0.067,0.002,0.14,0.004,0.207,0.006
	C264.768,91.872,264.7,91.87,264.63,91.868 M264.317,91.859c0.086,0.002,0.166,0.005,0.252,0.007
	C264.485,91.864,264.401,91.861,264.317,91.859 M264.036,91.851c0.074,0.002,0.149,0.004,0.223,0.006
	C264.184,91.855,264.109,91.853,264.036,91.851 M263.738,91.844c0.086,0.002,0.167,0.004,0.252,0.006
	C263.906,91.848,263.822,91.846,263.738,91.844 M263.448,91.836c0.074,0.002,0.15,0.004,0.223,0.006
	C263.596,91.84,263.522,91.838,263.448,91.836 M263.151,91.829c0.086,0.002,0.167,0.004,0.253,0.006
	C263.32,91.833,263.236,91.831,263.151,91.829 M262.86,91.822c0.074,0.002,0.15,0.003,0.224,0.005
	C263.01,91.826,262.934,91.824,262.86,91.822 M262.57,91.816c0.083,0.002,0.166,0.004,0.249,0.005
	C262.737,91.82,262.652,91.818,262.57,91.816 M262.273,91.81c0.074,0.001,0.147,0.003,0.221,0.005
	C262.422,91.813,262.346,91.811,262.273,91.81 M261.981,91.804c0.074,0.001,0.151,0.003,0.224,0.004
	C262.129,91.807,262.058,91.805,261.981,91.804 M261.655,91.798c0.083,0.001,0.171,0.003,0.254,0.005
	C261.824,91.801,261.739,91.799,261.655,91.798 M261.394,91.794c0.077,0.001,0.154,0.003,0.231,0.004
	C261.547,91.796,261.472,91.794,261.394,91.794 M261.069,91.789c0.087,0.001,0.168,0.003,0.254,0.004
	C261.238,91.791,261.154,91.79,261.069,91.789 M260.796,91.784c0.077,0.001,0.156,0.002,0.233,0.004
	C260.952,91.787,260.873,91.785,260.796,91.784 M260.479,91.779c0.087,0.001,0.172,0.003,0.258,0.004
	C260.65,91.782,260.567,91.781,260.479,91.779 M260.211,91.776c0.074,0.001,0.146,0.002,0.221,0.003
	C260.357,91.778,260.286,91.777,260.211,91.776 M259.894,91.771c0.084,0.001,0.168,0.002,0.252,0.003
	C260.061,91.774,259.979,91.773,259.894,91.771 M259.615,91.768c0.071,0.001,0.145,0.002,0.216,0.003
	C259.759,91.77,259.688,91.769,259.615,91.768 M259.3,91.764c0.087,0.001,0.171,0.002,0.258,0.003
	C259.47,91.766,259.386,91.765,259.3,91.764 M259.024,91.762c0.075,0.001,0.144,0.001,0.218,0.002
	C259.169,91.763,259.096,91.762,259.024,91.762 M258.707,91.759c0.087,0.001,0.172,0.002,0.259,0.002
	C258.878,91.76,258.794,91.759,258.707,91.759 M258.416,91.756c0.078,0.001,0.159,0.001,0.237,0.002
	C258.576,91.758,258.494,91.757,258.416,91.756 M258.113,91.754c0.09,0.001,0.174,0.001,0.264,0.002
	C258.289,91.755,258.201,91.755,258.113,91.754 M257.817,91.752c0.078,0,0.161,0.001,0.239,0.001
	C257.975,91.753,257.899,91.753,257.817,91.752 M257.522,91.751c0.087,0,0.175,0.001,0.263,0.001
	C257.698,91.752,257.61,91.751,257.522,91.751 M257.22,91.749c0.078,0,0.16,0.001,0.238,0.001
	C257.38,91.75,257.3,91.75,257.22,91.749 M256.927,91.748c0.087,0,0.173,0,0.261,0.001
	C257.101,91.749,257.016,91.749,256.927,91.748 M256.615,91.748c0.081,0,0.163,0,0.244,0
	C256.777,91.748,256.697,91.748,256.615,91.748 M256.332,91.747c0.088,0,0.175,0,0.263,0
	C256.507,91.747,256.42,91.747,256.332,91.747 M256,91.747L256,91.747c0.088,0,0.179,0,0.267,0
	C256.178,91.747,256.088,91.747,256,91.747 M423.727,44.94c0.001,0.001,0.001,0.002,0.002,0.003
	C423.728,44.942,423.728,44.941,423.727,44.94 M423.714,44.919L423.714,44.919L423.714,44.919 M423.705,44.904
	c0.001,0.001,0.002,0.003,0.003,0.005C423.707,44.907,423.706,44.906,423.705,44.904 M423.681,44.865
	c0.006,0.01,0.013,0.021,0.019,0.032C423.694,44.886,423.688,44.875,423.681,44.865 M412.971,27.356L412.971,27.356l10.702,17.495
	c0.002,0.003,0.003,0.005,0.005,0.008c-0.002-0.003-0.003-0.006-0.005-0.008L412.971,27.356"/>
<path style="fill:#BD7F00;" d="M288.138,464.369c-2.251,3.151-4.544,5.632-6.064,7.151c-0.579,0.579-1.298,1.27-2.141,2.029
	c2.925-1.549,5.689-3.366,8.325-5.398C288.222,466.942,288.182,465.682,288.138,464.369 M256,91.747v329.231
	c12.37,0,19.801,1.003,25.65,3.464c2.027,0.853,3.845,1.903,5.44,3.132c-1.009-67.46,4.647-169.032,67.878-169.032
	c73.583,0,157.025,25.235,157.031,25.237l-18.454,12.562L512,283.779l-18.648-12.274c-21.598-14.215-36.29-38.337-51.847-63.876l0,0
	c-1.825-2.997-3.658-6.003-5.51-9.013l0,0c-6.805-11.059-13.886-22.146-21.914-32.814c-9.677-12.86-20.733-25.112-34.342-35.969
	c-3.082-2.459-6.238-4.795-9.477-7.013c-8.364-5.727-17.258-10.651-26.711-14.779l0,0c-14.566-6.361-30.465-10.837-47.83-13.467
	h-0.002c-0.173-0.026-0.347-0.053-0.52-0.078c-0.003,0-0.004,0-0.006-0.001c-0.173-0.026-0.348-0.052-0.522-0.077
	c-0.003,0,0,0-0.003,0c-0.173-0.026-0.344-0.051-0.518-0.076c-0.006-0.001-0.011-0.002-0.016-0.002
	c-0.168-0.024-0.338-0.049-0.506-0.073c-0.008-0.001-0.022-0.003-0.03-0.004c-0.166-0.024-0.334-0.047-0.501-0.071
	c-0.008-0.001-0.018-0.003-0.027-0.004c-0.169-0.024-0.336-0.047-0.505-0.07c-0.008-0.001-0.016-0.002-0.025-0.003
	c-0.109-0.015-0.218-0.03-0.327-0.045c-0.006-0.001-0.006-0.001-0.011-0.002c-0.055-0.008-0.111-0.015-0.166-0.023
	c-0.011-0.001-0.019-0.003-0.031-0.004c-0.107-0.015-0.215-0.029-0.323-0.043c-0.006-0.001-0.008-0.001-0.013-0.002
	c-0.057-0.008-0.115-0.015-0.172-0.023c-0.003,0-0.006-0.001-0.009-0.001c-0.113-0.015-0.227-0.03-0.34-0.045
	c-0.006-0.001-0.006-0.001-0.012-0.001c-0.168-0.022-0.338-0.044-0.506-0.066c-0.011-0.001-0.025-0.003-0.036-0.005
	c-0.166-0.021-0.333-0.043-0.499-0.064c-0.011-0.001-0.023-0.003-0.034-0.004c-0.166-0.021-0.33-0.042-0.497-0.063
	c-0.017-0.002-0.027-0.003-0.044-0.005c-0.165-0.021-0.331-0.041-0.496-0.061c-0.014-0.002-0.025-0.003-0.039-0.005
	c-0.163-0.02-0.324-0.039-0.488-0.059c-0.02-0.002-0.042-0.005-0.062-0.007c-0.105-0.012-0.21-0.025-0.315-0.037
	c-0.003,0-0.008-0.001-0.011-0.001c-0.051-0.006-0.102-0.012-0.151-0.018c-0.02-0.002-0.041-0.005-0.061-0.007
	c-0.162-0.019-0.323-0.038-0.485-0.057c-0.017-0.002-0.035-0.004-0.052-0.006c-0.098-0.011-0.194-0.022-0.291-0.033
	c-0.014-0.002-0.026-0.003-0.041-0.005c-0.053-0.006-0.105-0.012-0.156-0.018c-0.017-0.002-0.034-0.004-0.051-0.006
	c-0.098-0.011-0.196-0.022-0.293-0.033c-0.011-0.001-0.029-0.003-0.041-0.005c-0.053-0.006-0.104-0.011-0.155-0.017
	c-0.02-0.002-0.035-0.004-0.055-0.006c-0.092-0.01-0.185-0.021-0.278-0.031c-0.02-0.002-0.041-0.005-0.061-0.007
	c-0.051-0.005-0.1-0.011-0.15-0.016c-0.017-0.002-0.039-0.004-0.056-0.006c-0.092-0.01-0.188-0.02-0.28-0.03
	c-0.017-0.002-0.036-0.004-0.054-0.006c-0.051-0.005-0.104-0.011-0.154-0.016c-0.02-0.002-0.038-0.004-0.058-0.006
	c-0.089-0.009-0.175-0.018-0.264-0.028c-0.029-0.003-0.051-0.005-0.08-0.008c-0.047-0.005-0.097-0.01-0.143-0.015
	c-0.026-0.003-0.047-0.005-0.073-0.008c-0.081-0.008-0.161-0.017-0.242-0.025c-0.029-0.003-0.064-0.006-0.092-0.009
	c-0.045-0.005-0.091-0.009-0.135-0.014c-0.032-0.003-0.064-0.006-0.096-0.01c-0.074-0.007-0.148-0.015-0.222-0.022
	c-0.032-0.003-0.066-0.007-0.098-0.01c-0.044-0.004-0.09-0.009-0.134-0.013c-0.035-0.003-0.074-0.007-0.108-0.011
	c-0.072-0.007-0.145-0.014-0.217-0.021c-0.029-0.003-0.055-0.005-0.084-0.008c-0.155-0.015-0.308-0.03-0.463-0.045
	c-0.032-0.003-0.062-0.006-0.094-0.009c-0.065-0.006-0.132-0.013-0.196-0.019c-0.041-0.004-0.086-0.008-0.126-0.012
	c-0.044-0.004-0.09-0.008-0.133-0.012c-0.032-0.003-0.065-0.006-0.097-0.009c-0.074-0.007-0.15-0.014-0.224-0.021
	c-0.029-0.003-0.064-0.006-0.093-0.009c-0.044-0.004-0.093-0.009-0.136-0.013c-0.035-0.003-0.071-0.006-0.106-0.01
	c-0.067-0.006-0.134-0.012-0.2-0.018c-0.038-0.003-0.077-0.007-0.115-0.01c-0.046-0.004-0.091-0.008-0.136-0.012
	c-0.032-0.003-0.061-0.005-0.093-0.008c-0.075-0.007-0.146-0.013-0.221-0.02c-0.035-0.003-0.068-0.006-0.103-0.009
	c-0.044-0.004-0.091-0.008-0.134-0.012c-0.035-0.003-0.068-0.006-0.103-0.009c-0.073-0.006-0.143-0.012-0.216-0.019
	c-0.035-0.003-0.068-0.006-0.104-0.009c-0.044-0.004-0.09-0.008-0.134-0.011c-0.038-0.003-0.078-0.007-0.116-0.01
	c-0.063-0.005-0.127-0.011-0.19-0.016c-0.041-0.003-0.081-0.007-0.122-0.01c-0.04-0.003-0.08-0.007-0.121-0.01
	c-0.053-0.004-0.105-0.009-0.157-0.013c-0.05-0.004-0.103-0.008-0.152-0.013c-0.044-0.004-0.084-0.007-0.128-0.01
	c-0.042-0.004-0.085-0.007-0.127-0.01c-0.05-0.004-0.095-0.008-0.144-0.011c-0.056-0.005-0.111-0.009-0.166-0.013
	c-0.041-0.003-0.081-0.006-0.122-0.01c-0.04-0.003-0.08-0.006-0.12-0.01c-0.068-0.005-0.135-0.01-0.202-0.016
	c-0.037-0.003-0.074-0.006-0.111-0.009c-0.041-0.003-0.088-0.007-0.129-0.01c-0.041-0.003-0.081-0.006-0.122-0.009
	c-0.068-0.005-0.131-0.01-0.199-0.015c-0.039-0.003-0.077-0.006-0.116-0.009c-0.041-0.003-0.085-0.006-0.126-0.009
	c-0.037-0.003-0.077-0.006-0.114-0.008c-0.071-0.005-0.14-0.01-0.21-0.016c-0.033-0.002-0.066-0.005-0.099-0.007
	c-0.05-0.004-0.1-0.007-0.149-0.011c-0.035-0.003-0.069-0.005-0.104-0.008c-0.071-0.005-0.141-0.01-0.212-0.015
	c-0.033-0.002-0.067-0.005-0.1-0.007c-0.05-0.004-0.104-0.007-0.153-0.011c-0.031-0.002-0.062-0.004-0.093-0.007
	c-0.071-0.005-0.142-0.01-0.213-0.015c-0.035-0.002-0.069-0.005-0.104-0.007c-0.05-0.003-0.105-0.007-0.154-0.011
	c-0.037-0.002-0.076-0.005-0.113-0.008c-0.065-0.004-0.133-0.009-0.199-0.013c-0.033-0.002-0.064-0.004-0.097-0.006
	c-0.056-0.004-0.109-0.007-0.164-0.011c-0.037-0.002-0.072-0.005-0.109-0.007c-0.065-0.004-0.131-0.009-0.195-0.013
	c-0.031-0.002-0.063-0.004-0.094-0.006c-0.059-0.004-0.112-0.007-0.171-0.011c-0.043-0.003-0.087-0.005-0.13-0.008
	c-0.057-0.004-0.114-0.007-0.169-0.011c-0.033-0.002-0.065-0.004-0.099-0.006c-0.065-0.004-0.13-0.008-0.195-0.012
	c-0.033-0.002-0.063-0.004-0.096-0.006c-0.06-0.004-0.12-0.007-0.178-0.011c-0.031-0.002-0.063-0.004-0.095-0.006
	c-0.069-0.004-0.137-0.008-0.206-0.012c-0.031-0.002-0.068-0.004-0.099-0.006c-0.057-0.003-0.114-0.007-0.17-0.01
	c-0.033-0.002-0.061-0.004-0.094-0.005c-0.075-0.004-0.151-0.009-0.226-0.013c-0.025-0.001-0.049-0.003-0.075-0.004
	c-0.06-0.003-0.121-0.007-0.18-0.01c-0.029-0.002-0.053-0.003-0.083-0.005c-0.075-0.004-0.155-0.009-0.23-0.013
	c-0.026-0.001-0.055-0.003-0.08-0.004c-0.06-0.003-0.123-0.007-0.182-0.01c-0.028-0.001-0.051-0.003-0.079-0.004
	c-0.078-0.004-0.152-0.008-0.23-0.012c-0.028-0.001-0.06-0.003-0.087-0.005c-0.057-0.003-0.114-0.006-0.17-0.009
	c-0.03-0.001-0.054-0.003-0.084-0.004c-0.075-0.004-0.153-0.008-0.229-0.012c-0.028-0.001-0.06-0.003-0.087-0.004
	c-0.06-0.003-0.12-0.006-0.179-0.009c-0.026-0.001-0.05-0.002-0.076-0.004c-0.078-0.004-0.155-0.008-0.234-0.011
	c-0.028-0.001-0.052-0.003-0.08-0.004c-0.066-0.003-0.131-0.006-0.197-0.01c-0.02-0.001-0.037-0.002-0.057-0.003
	c-0.078-0.004-0.157-0.008-0.235-0.011c-0.03-0.001-0.06-0.003-0.09-0.004c-0.063-0.003-0.128-0.006-0.19-0.009
	c-0.02-0.001-0.042-0.002-0.062-0.003c-0.078-0.004-0.156-0.007-0.235-0.011c-0.03-0.001-0.061-0.003-0.09-0.004
	c-0.063-0.003-0.128-0.006-0.19-0.008c-0.024-0.001-0.043-0.002-0.067-0.003c-0.076-0.003-0.146-0.006-0.222-0.01
	c-0.034-0.001-0.066-0.003-0.1-0.004c-0.06-0.003-0.124-0.005-0.183-0.008c-0.034-0.001-0.072-0.003-0.106-0.004
	c-0.064-0.003-0.131-0.005-0.193-0.008c-0.03-0.001-0.058-0.002-0.088-0.004c-0.079-0.003-0.164-0.007-0.243-0.01
	c-0.01,0-0.017-0.001-0.027-0.001c-0.076-0.003-0.149-0.006-0.224-0.009c-0.026-0.001-0.054-0.002-0.079-0.003
	c-0.082-0.003-0.16-0.006-0.242-0.009c-0.018-0.001-0.034-0.001-0.052-0.002c-0.07-0.003-0.137-0.005-0.207-0.008
	c-0.026-0.001-0.052-0.002-0.078-0.003c-0.082-0.003-0.162-0.006-0.245-0.009c-0.016-0.001-0.032-0.001-0.048-0.002
	c-0.07-0.003-0.142-0.005-0.212-0.007c-0.024-0.001-0.046-0.002-0.07-0.002c-0.082-0.003-0.165-0.006-0.247-0.008
	c-0.018-0.001-0.038-0.001-0.056-0.002c-0.073-0.002-0.139-0.005-0.212-0.007c-0.022-0.001-0.043-0.001-0.065-0.002
	c-0.082-0.003-0.168-0.005-0.25-0.008c-0.018-0.001-0.038-0.001-0.056-0.002c-0.07-0.002-0.141-0.004-0.211-0.007
	c-0.022-0.001-0.042-0.001-0.064-0.002c-0.082-0.002-0.164-0.005-0.247-0.007c-0.022-0.001-0.045-0.001-0.067-0.002
	c-0.067-0.002-0.14-0.004-0.207-0.006c-0.02-0.001-0.041-0.001-0.061-0.002c-0.086-0.002-0.166-0.005-0.252-0.007
	c-0.02-0.001-0.039-0.001-0.059-0.002c-0.074-0.002-0.149-0.004-0.223-0.006c-0.014,0-0.031-0.001-0.045-0.001
	c-0.086-0.002-0.167-0.004-0.252-0.006c-0.022-0.001-0.045-0.001-0.067-0.002c-0.074-0.002-0.15-0.004-0.223-0.006
	c-0.016,0-0.027-0.001-0.043-0.001c-0.086-0.002-0.167-0.004-0.253-0.006c-0.022,0-0.046-0.001-0.068-0.002
	c-0.074-0.002-0.15-0.003-0.224-0.005c-0.014,0-0.027-0.001-0.041-0.001c-0.083-0.002-0.166-0.004-0.249-0.005
	c-0.026-0.001-0.049-0.001-0.076-0.002c-0.074-0.002-0.147-0.003-0.221-0.005c-0.022,0-0.046-0.001-0.068-0.001
	c-0.074-0.001-0.15-0.003-0.224-0.004c-0.024,0-0.048-0.001-0.073-0.001c-0.083-0.002-0.171-0.003-0.254-0.005
	c-0.008,0-0.022,0-0.03-0.001c-0.077-0.001-0.154-0.003-0.231-0.004c-0.022,0-0.05-0.001-0.072-0.001
	c-0.086-0.001-0.167-0.003-0.254-0.004c-0.014,0-0.025,0-0.039-0.001c-0.077-0.001-0.156-0.003-0.233-0.004
	c-0.02,0-0.038-0.001-0.059-0.001c-0.087-0.001-0.172-0.003-0.258-0.004c-0.014,0-0.034,0-0.048-0.001
	c-0.074-0.001-0.146-0.002-0.221-0.003c-0.02,0-0.045-0.001-0.065-0.001c-0.084-0.001-0.168-0.002-0.252-0.003
	c-0.02,0-0.042,0-0.062-0.001c-0.071-0.001-0.145-0.002-0.216-0.003c-0.018,0-0.04,0-0.059-0.001
	c-0.087-0.001-0.171-0.002-0.258-0.003c-0.018,0-0.039,0-0.057-0.001c-0.075-0.001-0.144-0.001-0.218-0.002
	c-0.018,0-0.039,0-0.058-0.001c-0.087-0.001-0.172-0.002-0.259-0.002c-0.018,0-0.035,0-0.054,0
	c-0.078-0.001-0.159-0.001-0.237-0.002c-0.014,0-0.025,0-0.04,0c-0.09-0.001-0.173-0.001-0.264-0.002c-0.018,0-0.039,0-0.057,0
	c-0.078,0-0.161-0.001-0.239-0.001c-0.01,0-0.022,0-0.032,0c-0.087,0-0.175-0.001-0.263-0.001c-0.02,0-0.043,0-0.064,0
	c-0.078,0-0.16-0.001-0.238-0.001c-0.01,0-0.022,0-0.032,0c-0.087,0-0.173-0.001-0.261-0.001c-0.023,0-0.046,0-0.069,0
	c-0.081,0-0.163,0-0.244,0c-0.006,0-0.014,0-0.021,0c-0.088,0-0.175,0-0.263,0c-0.023,0-0.043,0-0.066,0
	C256.179,91.747,256.087,91.747,256,91.747"/>
<path style="fill:#B19267;" d="M362.024,324.288c-9.443,0-17.104-7.754-17.104-17.319c0-9.565,7.66-17.319,17.104-17.319
	c9.432,0,17.093,7.754,17.093,17.319C379.117,316.535,371.457,324.288,362.024,324.288 M354.968,258.542
	c-63.231,0-68.887,101.572-67.878,169.032c5.309,4.092,8.165,10.176,8.165,17.635c0,7.308-3.502,14.099-7.117,19.161
	c0.044,1.313,0.084,2.573,0.12,3.787c9.776-7.535,17.83-18.023,26.122-28.831c6.993-9.114,14.223-18.538,23.307-27.621
	c28.712-28.712,154.59-114.499,155.858-115.362l0,0l18.454-12.562C511.993,283.777,428.551,258.542,354.968,258.542"/>
<path style="fill:#BDBDBF;" d="M256.064,484.643c-0.021,0-0.043,0-0.064,0C256.021,484.643,256.043,484.643,256.064,484.643
	 M256.128,484.643c-0.015,0-0.029,0-0.044,0C256.099,484.643,256.114,484.643,256.128,484.643 M256.193,484.642
	c-0.014,0-0.028,0-0.043,0C256.165,484.643,256.179,484.642,256.193,484.642 M256.259,484.642c-0.014,0-0.029,0-0.043,0
	C256.23,484.642,256.244,484.642,256.259,484.642 M256.332,484.641c-0.016,0-0.034,0-0.05,0.001
	C256.298,484.641,256.314,484.641,256.332,484.641 M256.476,484.638c-0.044,0.001-0.089,0.002-0.133,0.002
	C256.388,484.64,256.432,484.639,256.476,484.638 M256.54,484.637c-0.019,0-0.037,0.001-0.055,0.001
	C256.503,484.638,256.521,484.637,256.54,484.637 M256.609,484.635c-0.018,0-0.035,0.001-0.053,0.001
	C256.574,484.636,256.592,484.635,256.609,484.635 M256.68,484.633c-0.021,0.001-0.04,0.001-0.061,0.002
	C256.64,484.634,256.66,484.634,256.68,484.633 M269.323,481.039c-3.805,1.977-8.121,3.456-12.638,3.593
	C261.204,484.495,265.519,483.016,269.323,481.039"/>
<path style="fill:#191310;" d="M256,420.978v63.666l0,0c0.021,0,0.043,0,0.064,0c0.007,0,0.014,0,0.02,0c0.015,0,0.029,0,0.044,0
	c0.008,0,0.016,0,0.024,0c0.014,0,0.028,0,0.043,0c0.007,0,0.015,0,0.022,0c0.014,0,0.029,0,0.043,0c0.007,0,0.015,0,0.023,0
	c0.016,0,0.034,0,0.05-0.001c0.004,0,0.008,0,0.013,0c0.044-0.001,0.089-0.002,0.133-0.002c0.003,0,0.005,0,0.008,0
	c0.019,0,0.037-0.001,0.055-0.001c0.005,0,0.011,0,0.016,0c0.018,0,0.035-0.001,0.053-0.001c0.004,0,0.007,0,0.01,0
	c0.021-0.001,0.04-0.001,0.061-0.002c0.001,0,0.003,0,0.004,0c4.517-0.137,8.834-1.617,12.638-3.593
	c4.356-2.263,8.04-5.18,10.595-7.482c0.005-0.003,0.01-0.005,0.015-0.008c0.842-0.759,1.561-1.451,2.141-2.029
	c1.52-1.52,3.815-4.001,6.064-7.151c3.614-5.062,7.117-11.852,7.117-19.161c0-7.459-2.856-13.543-8.165-17.635
	c-1.595-1.229-3.412-2.279-5.439-3.132C275.801,421.981,268.37,420.978,256,420.978"/>
<g>
</g>
<g>
</g>
<g>
</g>
<g>
</g>
<g>
</g>
<g>
</g>
<g>
</g>
<g>
</g>
<g>
</g>
<g>
</g>
<g>
</g>
<g>
</g>
<g>
</g>
<g>
</g>
<g>
</g>
</svg>
