<?xml version="1.0" encoding="iso-8859-1"?>
<!-- Generator: Adobe Illustrator 19.0.0, SVG Export Plug-In . SVG Version: 6.00 Build 0)  -->
<svg version="1.1" id="Layer_1" xmlns="http://www.w3.org/2000/svg" xmlns:xlink="http://www.w3.org/1999/xlink" x="0px" y="0px"
	 viewBox="0 0 512 512" style="enable-background:new 0 0 512 512;" xml:space="preserve">
<path style="fill:#87868A;" d="M176.786,67.806c-3.369-16.932-12.237-32.735-24.97-44.499
	c-13.183-12.179-29.61-19.589-47.504-21.428C82.395-0.374,60.914,6.044,43.825,19.948S16.084,53.579,13.831,75.496
	c-2.121,20.644,3.547,41.165,15.962,57.781c12.337,16.51,30.241,27.743,50.417,31.628L176.786,67.806z"/>
<path style="fill:#D37B93;" d="M86.138,134.123c-12.489-2.404-23.58-9.369-31.232-19.61C47.213,104.217,43.7,91.498,45.015,78.7
	c1.396-13.587,8-25.817,18.594-34.437s23.909-12.601,37.498-11.202c22.473,2.309,40.531,18.731,44.935,40.862L86.138,134.123z"/>
<path style="fill:#646467;" d="M335.214,67.807c3.369-16.932,12.237-32.735,24.971-44.5c13.182-12.179,29.609-19.589,47.503-21.428
	c21.918-2.253,43.398,4.164,60.487,18.069c17.089,13.904,27.741,33.631,29.993,55.548c2.122,20.645-3.547,41.165-15.962,57.781
	c-12.337,16.51-30.242,27.743-50.417,31.628L335.214,67.807"/>
<path style="fill:#9D5B6E;" d="M425.861,134.123c12.489-2.405,23.58-9.37,31.233-19.61c7.694-10.297,11.207-23.016,9.891-35.814
	c-1.396-13.587-8-25.817-18.594-34.437c-10.594-8.619-23.91-12.601-37.499-11.202c-22.473,2.309-40.531,18.731-44.935,40.862
	L425.861,134.123"/>
<path style="fill:#87868A;" d="M74.928,282.658l-31.271,2.19c-0.34-4.864-0.513-9.723-0.513-14.442
	c0-67.904,13.18-119.26,40.295-157.005C118.451,64.665,176.508,39.954,256,39.954s137.549,24.711,172.561,73.448
	c27.115,37.745,40.295,89.101,40.295,157.005c0,4.718-0.172,9.576-0.513,14.442l-31.271-2.19H74.928"/>
<g>
	<path style="fill:#333333;" d="M183.27,189.739c0-11.513,9.229-20.835,20.569-20.835c11.355,0,20.582,9.324,20.582,20.835
		c0,11.511-9.227,20.843-20.582,20.843C192.498,210.581,183.27,201.249,183.27,189.739z"/>
	<path style="fill:#333333;" d="M328.734,189.739c0-11.597-9.288-20.997-20.724-20.997c-11.45,0-20.738,9.4-20.738,20.997
		s9.288,20.998,20.738,20.998C319.446,210.737,328.734,201.336,328.734,189.739"/>
</g>
<path style="fill:#5B5B5F;" d="M378.133,510.563H133.866C60.052,510.563,0,450.51,0,376.696c0-36.111,13.394-69.685,37.712-94.537
	c24.817-25.362,58.966-39.33,96.154-39.33c57.274,0,103.906,20.856,122.134,30.33c18.227-9.475,64.859-30.33,122.133-30.33
	c37.188,0,71.335,13.967,96.154,39.33C498.605,307.011,512,340.586,512,376.696C512,450.51,451.948,510.563,378.133,510.563"/>
<g>
	<path style="fill:#333333;" d="M376.261,412.761c-19.887,0-36.066-16.178-36.066-36.065c0-19.887,16.178-36.066,36.066-36.066
		c19.887,0,36.066,16.179,36.066,36.066S396.148,412.761,376.261,412.761"/>
	<path style="fill:#333333;" d="M135.737,412.762c-19.886,0-36.066-16.179-36.066-36.066s16.179-36.066,36.066-36.066
		s36.066,16.179,36.066,36.066S155.625,412.762,135.737,412.762z"/>
</g>
<path style="fill:#BDBDBF;" d="M468.855,269.797c0,0.045,0,0.097,0,0.142C468.855,269.891,468.855,269.846,468.855,269.797
	 M468.855,269.309c0,0.05,0,0.103,0,0.153C468.855,269.411,468.855,269.36,468.855,269.309 M468.853,268.849
	c0,0.021,0,0.036,0,0.056C468.854,268.887,468.854,268.867,468.853,268.849 M468.852,268.266c0,0.037,0,0.071,0,0.109
	C468.852,268.337,468.852,268.304,468.852,268.266 M468.849,267.773c0,0.041,0,0.075,0.001,0.116
	C468.85,267.851,468.85,267.809,468.849,267.773 M468.847,267.299c0,0.021,0,0.044,0,0.064
	C468.847,267.342,468.847,267.32,468.847,267.299 M468.839,266.24c0,0.029,0,0.06,0.001,0.088
	C468.839,266.3,468.839,266.269,468.839,266.24 M468.835,265.768c0,0.013,0,0.024,0,0.037
	C468.835,265.794,468.835,265.779,468.835,265.768 M481.553,134.138c-0.005,0.007-0.013,0.017-0.018,0.023
	C481.541,134.153,481.546,134.146,481.553,134.138 M481.739,133.895c-0.014,0.018-0.026,0.033-0.04,0.052
	C481.712,133.93,481.726,133.912,481.739,133.895 M481.879,133.71c-0.025,0.033-0.05,0.066-0.075,0.098
	C481.83,133.776,481.855,133.743,481.879,133.71 M482.041,133.496c-0.036,0.047-0.071,0.094-0.107,0.141
	C481.97,133.59,482.005,133.543,482.041,133.496 M482.206,133.277c-0.042,0.055-0.083,0.111-0.124,0.166
	C482.122,133.387,482.164,133.332,482.206,133.277 M258.894,39.964c0.048,0,0.103,0.001,0.152,0.001
	C258.995,39.965,258.946,39.965,258.894,39.964 M258.456,39.962c0.072,0,0.137,0.001,0.209,0.001
	C258.597,39.962,258.524,39.962,258.456,39.962 M257.949,39.959c0.101,0,0.207,0.001,0.307,0.002
	C258.154,39.96,258.052,39.959,257.949,39.959 M257.437,39.956c0.136,0,0.275,0.001,0.411,0.002
	C257.709,39.958,257.575,39.957,257.437,39.956 M256.998,39.955c0.097,0,0.202,0,0.299,0.001
	C257.196,39.956,257.097,39.955,256.998,39.955 M256.553,39.954c0.101,0,0.205,0,0.306,0.001
	C256.758,39.955,256.654,39.954,256.553,39.954 M256.002,39.954L256.002,39.954c0.139,0,0.284,0,0.424,0
	C256.284,39.954,256.144,39.954,256.002,39.954 M359.109,24.317c-0.016,0.015-0.032,0.031-0.049,0.047
	C359.077,24.348,359.094,24.333,359.109,24.317 M359.265,24.168c-0.029,0.028-0.059,0.055-0.088,0.084
	C359.207,24.225,359.236,24.197,359.265,24.168 M359.417,24.024c-0.03,0.028-0.06,0.056-0.089,0.085
	C359.358,24.081,359.387,24.053,359.417,24.024 M359.587,23.863c-0.042,0.04-0.083,0.078-0.124,0.118
	C359.504,23.942,359.545,23.902,359.587,23.863 M359.72,23.738c-0.04,0.037-0.079,0.075-0.119,0.112
	C359.64,23.813,359.681,23.776,359.72,23.738 M360.019,23.46c-0.088,0.082-0.176,0.163-0.263,0.246
	C359.843,23.623,359.93,23.542,360.019,23.46 M467.732,19.591c0.147,0.119,0.295,0.237,0.442,0.357
	c17.089,13.904,27.741,33.631,29.993,55.548c0.29,2.822,0.435,5.642,0.436,8.451c-0.001-2.809-0.146-5.629-0.436-8.451
	c-2.252-21.917-12.903-41.643-29.993-55.548C468.028,19.828,467.88,19.709,467.732,19.591 M407.687,1.879L407.687,1.879
	c-17.894,1.839-34.321,9.248-47.503,21.428c-0.044,0.041-0.089,0.083-0.133,0.123c0.044-0.041,0.089-0.083,0.133-0.123
	C373.366,11.127,389.793,3.718,407.687,1.879L407.687,1.879 M416.268,1.437c-2.798,0-5.612,0.141-8.433,0.426
	C410.654,1.579,413.472,1.438,416.268,1.437 M416.275,1.437L416.275,1.437L416.275,1.437L416.275,1.437"/>
<path style="fill:#646467;" d="M308.01,210.737c-11.45,0-20.738-9.401-20.738-20.998c0-11.597,9.288-20.997,20.738-20.997
	c11.436,0,20.724,9.4,20.724,20.997C328.734,201.336,319.446,210.737,308.01,210.737 M256.002,39.954v233.204
	c18.229-9.475,64.86-30.329,122.131-30.329c34.493,0,66.371,12.016,90.615,33.997c0.069-2.159,0.109-4.305,0.109-6.42l0,0
	c0-0.156,0-0.311,0-0.467c0-0.045,0-0.097,0-0.142c0-0.11,0-0.225,0-0.335c0-0.049,0-0.103,0-0.153c0-0.134-0.001-0.27-0.001-0.404
	c0-0.021,0-0.036,0-0.056c0-0.159-0.001-0.317-0.002-0.474c0-0.038,0-0.071,0-0.109c0-0.126-0.001-0.252-0.002-0.377
	c0-0.042,0-0.075-0.001-0.116c-0.001-0.137-0.001-0.273-0.002-0.409c0-0.021,0-0.044,0-0.064c-0.002-0.324-0.004-0.649-0.006-0.971
	c0-0.029,0-0.06-0.001-0.088c-0.001-0.146-0.002-0.289-0.004-0.436c0-0.013,0-0.024,0-0.037
	c-0.379-42.09-5.949-77.693-16.883-107.557c0.003-0.001,0.005-0.002,0.008-0.004c-3.719-10.157-8.059-19.649-13.029-28.504
	c-3.196-5.696-6.652-11.126-10.37-16.302c-15.356-21.375-35.143-38.128-59.23-50.203c-9.074-4.548-18.758-8.433-29.044-11.651
	c-0.002,0.006-0.005,0.011-0.007,0.018c-23.868-7.467-50.968-11.356-81.233-11.599c-0.048,0-0.103-0.001-0.152-0.001
	c-0.076,0-0.153-0.001-0.229-0.002c-0.072,0-0.137-0.001-0.209-0.001c-0.067,0-0.133-0.001-0.2-0.001
	c-0.101,0-0.206-0.001-0.307-0.002c-0.032,0-0.069,0-0.101,0c-0.135,0-0.275-0.001-0.411-0.002c-0.046,0-0.094,0-0.14,0
	c-0.097,0-0.202,0-0.299-0.001c-0.046,0-0.092,0-0.139,0c-0.101,0-0.205,0-0.306-0.001c-0.042,0-0.084,0-0.125,0
	c-0.141,0-0.286,0-0.426,0"/>
<path style="fill:#BDBDBF;" d="M474.081,281.95c0.017,0.017,0.034,0.034,0.051,0.051
	C474.115,281.985,474.098,281.967,474.081,281.95"/>
<path style="fill:#434347;" d="M376.261,412.761c-19.887,0-36.066-16.178-36.066-36.065c0-19.887,16.178-36.066,36.066-36.066
	c19.887,0,36.066,16.179,36.066,36.066S396.148,412.761,376.261,412.761 M378.133,242.829c-57.271,0-103.902,20.854-122.131,30.329
	v237.405h122.131C451.948,510.563,512,450.51,512,376.696c0-36.111-13.393-69.685-37.713-94.537l0,0
	c-0.051-0.052-0.102-0.105-0.155-0.158c-0.017-0.017-0.034-0.034-0.051-0.051c-1.732-1.762-3.514-3.462-5.334-5.112
	c0-0.004,0-0.008,0-0.011C444.504,254.845,412.626,242.829,378.133,242.829"/>
<g>
</g>
<g>
</g>
<g>
</g>
<g>
</g>
<g>
</g>
<g>
</g>
<g>
</g>
<g>
</g>
<g>
</g>
<g>
</g>
<g>
</g>
<g>
</g>
<g>
</g>
<g>
</g>
<g>
</g>
</svg>
