<?xml version="1.0" encoding="iso-8859-1"?>
<!-- Generator: Adobe Illustrator 19.0.0, SVG Export Plug-In . SVG Version: 6.00 Build 0)  -->
<svg version="1.1" id="Layer_1" xmlns="http://www.w3.org/2000/svg" xmlns:xlink="http://www.w3.org/1999/xlink" x="0px" y="0px"
	 viewBox="0 0 512.001 512.001" style="enable-background:new 0 0 512.001 512.001;" xml:space="preserve">
<path style="fill:#B17E15;" d="M136.533,218.28C65.002,187.99,41.2,133.382,33.828,92.906c-7.839-43.044,0.95-78.858,1.328-80.36
	l2.551-10.147l10.35-1.536c2.347-0.346,57.992-8.085,102.472,30.283c34.536,29.79,52.048,78.037,52.048,143.401L136.533,218.28z"/>
<path style="fill:#EFC589;" d="M171.229,174.549c0-55.642-13.759-95.822-40.895-119.424c-23.218-20.193-51.495-23.576-66.736-23.74
	c-1.666,12.345-3.155,33.579,1.262,56.947c8.938,47.285,37.164,81.294,83.895,101.083L171.229,174.549z"/>
<path style="fill:#9B640D;" d="M375.468,218.28c71.532-30.29,95.334-84.898,102.705-125.373c7.839-43.044-0.95-78.858-1.328-80.36
	l-2.551-10.147l-10.35-1.536c-2.347-0.346-57.992-8.085-102.472,30.283c-34.536,29.79-52.048,78.037-52.048,143.401L375.468,218.28z
	"/>
<path style="fill:#B19267;" d="M340.772,174.549c0-55.642,13.759-95.822,40.895-119.424c23.218-20.193,51.495-23.576,66.736-23.74
	c1.666,12.345,3.155,33.579-1.262,56.947c-8.938,47.285-37.164,81.294-83.895,101.083L340.772,174.549z"/>
<path style="fill:#B17E15;" d="M256.001,512c-17.188,0-42.275-2.337-64.185-13.482c-28.074-14.28-42.914-38.986-42.914-71.45
	l0.02-0.792c0.576-11.572-0.087-27.133-1.992-31.848c-4.191-10.369-8.334-19.255-12.341-27.849
	c-10.067-21.59-19.574-41.981-23.766-74.881c-5.441-42.684,2.744-76.75,24.325-101.257c24.572-27.904,65.233-42.052,120.852-42.052
	c55.618,0,96.28,14.148,120.854,42.052c21.58,24.507,29.764,58.574,24.325,101.257c-4.192,32.897-13.702,53.289-23.766,74.876
	c-4.007,8.594-8.151,17.481-12.342,27.853c-1.888,4.671-2.565,20.531-1.993,31.848l0.022,0.792c0,32.464-14.84,57.172-42.914,71.45
	C298.276,509.663,273.189,512,256.001,512"/>
<g>
	<path style="fill:#333333;" d="M183.269,266.45c0-11.513,9.229-20.835,20.569-20.835c11.355,0,20.582,9.324,20.582,20.835
		c0,11.511-9.226,20.843-20.582,20.843C192.497,287.292,183.269,277.96,183.269,266.45z"/>
	<path style="fill:#333333;" d="M328.733,266.45c0-11.597-9.288-20.998-20.724-20.998c-11.45,0-20.738,9.402-20.738,20.998
		c0,11.597,9.288,20.998,20.738,20.998C319.445,287.448,328.733,278.047,328.733,266.45"/>
	<path style="fill:#333333;" d="M240.327,511.332c5.661,0.482,10.97,0.669,15.673,0.669c4.703,0,10.012-0.186,15.674-0.669v-88.148
		h-31.348v88.148"/>
	<path style="fill:#333333;" d="M256.001,444.456c-15.477,0-29.31-12.156-34.541-17.384c-5.25-5.245-17.46-19.147-17.46-34.855
		c0-12.851,6.4-22.621,18.021-27.511c7.748-3.26,17.592-4.589,33.98-4.589c16.387,0,26.231,1.329,33.978,4.589
		c11.622,4.89,18.022,14.66,18.022,27.511c0,15.708-12.211,29.607-17.461,34.855C285.312,432.3,271.476,444.456,256.001,444.456"/>
</g>
<path style="fill:#9B640D;" d="M256.219,512c-0.073,0-0.145,0-0.218,0C256.073,512,256.146,512,256.219,512 M308.009,287.448
	c-11.45,0-20.738-9.401-20.738-20.998s9.288-20.998,20.738-20.998c11.436,0,20.724,9.402,20.724,20.998
	C328.733,278.047,319.445,287.448,308.009,287.448 M256.001,148.39v211.727c16.387,0,26.231,1.329,33.978,4.589
	c11.622,4.89,18.022,14.66,18.022,27.511c0,15.708-12.211,29.607-17.461,34.855c-3.356,3.356-10.26,9.566-18.866,13.584v70.676
	c-5.569,0.474-10.797,0.662-15.444,0.669c17.181-0.021,42.143-2.388,63.954-13.482c28.074-14.28,42.914-38.986,42.914-71.45
	l-0.022-0.792c-0.132-2.608-0.197-5.457-0.196-8.355c0.001-9.677,0.737-19.898,2.19-23.491c4.191-10.371,8.335-19.259,12.342-27.853
	c10.066-21.589,19.574-41.98,23.766-74.876c1.084-8.503,1.627-16.665,1.63-24.477c0.016-31.401-8.675-57.156-25.955-76.78
	C352.281,162.538,311.619,148.39,256.001,148.39"/>
<g>
	<path style="fill:#2D2920;" d="M271.675,440.656c-4.801,2.241-10.132,3.8-15.673,3.8v67.544l0,0c0.073,0,0.145,0,0.218,0
		c0.004,0,0.007,0,0.012,0c4.647-0.006,9.874-0.194,15.444-0.669V440.656"/>
	<path style="fill:#2D2920;" d="M256.001,360.118v84.339c5.542,0,10.873-1.559,15.673-3.8c8.606-4.018,15.509-10.229,18.866-13.584
		c5.251-5.246,17.461-19.147,17.461-34.855c0-12.851-6.4-22.621-18.022-27.511C282.232,361.446,272.387,360.118,256.001,360.118"/>
</g>
<g>
</g>
<g>
</g>
<g>
</g>
<g>
</g>
<g>
</g>
<g>
</g>
<g>
</g>
<g>
</g>
<g>
</g>
<g>
</g>
<g>
</g>
<g>
</g>
<g>
</g>
<g>
</g>
<g>
</g>
</svg>
