<?xml version="1.0" encoding="iso-8859-1"?>
<!-- Generator: Adobe Illustrator 19.0.0, SVG Export Plug-In . SVG Version: 6.00 Build 0)  -->
<svg version="1.1" id="Layer_1" xmlns="http://www.w3.org/2000/svg" xmlns:xlink="http://www.w3.org/1999/xlink" x="0px" y="0px"
	 viewBox="0 0 512 512" style="enable-background:new 0 0 512 512;" xml:space="preserve">
<path style="fill:#B17E15;" d="M256,512l-8.273-5.181c-2.204-1.381-54.614-34.393-107.824-84.371
	c-31.545-29.63-56.761-59.085-74.944-87.547c-23.488-36.766-35.397-72.207-35.397-105.337c0-67.954,22.414-125.909,64.816-167.602
	C135.015,22.005,192.413,0,256,0c63.588,0,120.986,22.005,161.622,61.961c42.404,41.694,64.816,99.65,64.816,167.602
	c0,33.131-11.909,68.571-35.397,105.337c-18.183,28.462-43.398,57.917-74.944,87.547c-53.209,49.978-105.619,82.991-107.824,84.371
	L256,512"/>
<path style="fill:#EFC589;" d="M256,388.184c-43.843,0-77.555-12.329-100.197-36.644c-29.847-32.051-28.997-73.471-28.703-79.482
	v-39.743c-19.37-9.671-32.084-29.767-32.084-52.451c0-32.252,25.858-58.491,57.641-58.491c17.964,0,34.689,8.627,45.448,22.559
	c13.048-5.873,33.767-12.944,57.895-12.944s44.849,7.071,57.896,12.944c10.76-13.932,27.484-22.559,45.447-22.559
	c31.784,0,57.642,26.239,57.642,58.491c0,22.683-12.714,42.781-32.084,52.451v39.743c0.294,6.012,1.144,47.431-28.703,79.482
	C333.555,375.856,299.844,388.184,256,388.184"/>
<path style="fill:#333333;" d="M211.877,233.738c0-6.984,5.599-12.641,12.478-12.641c6.889,0,12.487,5.656,12.487,12.641
	c0,6.983-5.598,12.644-12.487,12.644C217.475,246.382,211.877,240.722,211.877,233.738z"/>
<path d="M300.124,233.738c0-7.035-5.634-12.739-12.573-12.739c-6.947,0-12.582,5.703-12.582,12.739s5.635,12.738,12.582,12.738
	C294.49,246.476,300.124,240.773,300.124,233.738"/>
<path style="fill:#5B5B5F;" d="M240.412,387.632c5.045,0.366,10.24,0.553,15.588,0.553c5.349,0,10.542-0.187,15.588-0.553v-65.359
	h-31.175V387.632"/>
<path style="fill:#D37B93;" d="M256,345.952c-11.407,0-21.33-8.687-25.068-12.423c-3.751-3.749-12.476-13.718-12.476-25.279
	c0-9.834,4.911-17.317,13.827-21.068c5.542-2.332,12.413-3.283,23.717-3.283c11.304,0,18.176,0.951,23.718,3.283
	c8.916,3.751,13.827,11.235,13.827,21.068c0,11.562-8.725,21.53-12.476,25.279C277.331,337.265,267.407,345.952,256,345.952"/>
<path style="fill:#835E10;" d="M256,0v130.988c24.129,0,44.849,7.071,57.896,12.944c10.76-13.932,27.484-22.559,45.447-22.559
	c31.784,0,57.642,26.239,57.642,58.491c0,22.683-12.714,42.781-32.084,52.451v39.743c0.294,6.012,1.144,47.431-28.703,79.482
	c-22.6,24.269-56.222,36.598-99.945,36.643c-0.084,0-0.168,0-0.253,0l0,0v123.814v0.001l8.273-5.181
	c2.205-1.381,54.615-34.393,107.824-84.371c31.546-29.63,56.761-59.085,74.944-87.547c23.488-36.766,35.397-72.207,35.397-105.337
	c0-67.954-22.414-125.909-64.816-167.602C376.986,22.005,319.588,0,256,0"/>
<path style="fill:#B19267;" d="M287.552,246.476c-6.947,0-12.582-5.703-12.582-12.738c0-7.035,5.635-12.739,12.582-12.739
	c6.938,0,12.573,5.703,12.573,12.739S294.49,246.476,287.552,246.476 M359.344,121.373c-17.963,0-34.688,8.627-45.447,22.559
	c-13.048-5.873-33.767-12.944-57.895-12.944v152.91c11.304,0,18.176,0.951,23.718,3.283c8.916,3.751,13.827,11.235,13.827,21.068
	c0,11.562-8.725,21.53-12.476,25.279c-1.843,1.842-5.192,4.889-9.481,7.505v46.599c-4.965,0.36-10.076,0.547-15.335,0.552
	c43.722-0.047,77.345-12.374,99.945-36.643c29.847-32.051,28.997-73.471,28.703-79.482v-39.743
	c19.37-9.671,32.085-29.767,32.085-52.451C416.986,147.613,391.128,121.373,359.344,121.373"/>
<path style="fill:#333333;" d="M287.552,220.999c-6.947,0-12.582,5.703-12.582,12.739s5.635,12.738,12.582,12.738
	c6.938,0,12.573-5.703,12.573-12.738C300.125,226.703,294.49,220.999,287.552,220.999"/>
<path style="fill:#434347;" d="M271.588,341.034c-4.407,2.687-9.807,4.918-15.588,4.918v42.232l0,0c0.084,0,0.168,0,0.253,0
	c5.259-0.006,10.37-0.192,15.335-0.552V341.034"/>
<path style="fill:#9D5B6E;" d="M256,283.898v62.053c5.781,0,11.18-2.231,15.588-4.918c4.289-2.616,7.638-5.662,9.481-7.505
	c3.75-3.749,12.476-13.718,12.476-25.279c0-9.834-4.911-17.317-13.827-21.068C274.176,284.85,267.304,283.898,256,283.898"/>
<g>
</g>
<g>
</g>
<g>
</g>
<g>
</g>
<g>
</g>
<g>
</g>
<g>
</g>
<g>
</g>
<g>
</g>
<g>
</g>
<g>
</g>
<g>
</g>
<g>
</g>
<g>
</g>
<g>
</g>
</svg>
