<?xml version="1.0" encoding="iso-8859-1"?>
<!-- Generator: Adobe Illustrator 19.0.0, SVG Export Plug-In . SVG Version: 6.00 Build 0)  -->
<svg version="1.1" id="Layer_1" xmlns="http://www.w3.org/2000/svg" xmlns:xlink="http://www.w3.org/1999/xlink" x="0px" y="0px"
	 viewBox="0 0 512 512" style="enable-background:new 0 0 512 512;" xml:space="preserve">
<path style="fill:#87868A;" d="M99.151,156.118c-21.616-2.764-51.739-8.585-72.487-20.634c-12.396-7.2-21.23-18.766-24.875-32.572
	c-3.636-13.773-1.686-28.162,5.49-40.519S25.985,41.212,39.75,37.545c13.797-3.676,28.221-1.735,40.617,5.463
	c20.395,11.845,40.079,34.606,52.999,51.613L99.151,156.118z"/>
<path style="fill:#D37B93;" d="M103.125,125.025c-15.349-1.962-43.647-6.733-60.721-16.649c-5.145-2.987-8.806-7.77-10.309-13.466
	c-1.502-5.69-0.69-11.648,2.288-16.777c2.978-5.129,7.75-8.787,13.437-10.302c5.694-1.514,11.661-0.707,16.805,2.281
	c12.416,7.21,27.964,22.649,43.782,43.469L103.125,125.025z"/>
<path style="fill:#646467;" d="M412.849,156.118c21.616-2.764,51.739-8.585,72.487-20.634c12.396-7.2,21.23-18.766,24.875-32.572
	c3.636-13.773,1.686-28.162-5.49-40.519s-18.708-21.181-32.472-24.848c-13.797-3.676-28.221-1.735-40.617,5.463
	c-20.395,11.845-40.079,34.606-52.999,51.613L412.849,156.118z"/>
<path style="fill:#9D5B6E;" d="M408.876,125.025c15.349-1.962,43.647-6.733,60.721-16.649c5.145-2.987,8.806-7.77,10.309-13.466
	c1.502-5.69,0.69-11.648-2.288-16.777c-2.978-5.129-7.75-8.787-13.437-10.302c-5.694-1.514-11.661-0.707-16.805,2.281
	c-12.416,7.21-27.964,22.649-43.782,43.469L408.876,125.025z"/>
<path style="fill:#87868A;" d="M256,476.273c-48.819,0-82.664-13.363-103.47-40.854c-18.058-23.86-23.355-54.217-28.477-83.574
	c-2.849-16.326-5.54-31.746-10.239-45.869c-4.185-12.574-8.223-23.323-12.127-33.718C90.011,241.18,80.79,216.633,80.79,176.681
	c0-27.383,6.252-50.972,18.584-70.113c10.857-16.851,26.468-30.335,46.399-40.078c36.567-17.874,80.422-19.942,110.228-19.942
	s73.661,2.068,110.228,19.942c19.931,9.743,35.542,23.227,46.399,40.078c12.332,19.139,18.584,42.73,18.584,70.113
	c0,39.951-9.222,64.498-20.897,95.576c-3.906,10.394-7.944,21.143-12.127,33.718c-4.7,14.124-7.39,29.544-10.239,45.869
	c-5.123,29.358-10.419,59.714-28.477,83.574C338.664,462.909,304.819,476.273,256,476.273z"/>
<path style="fill:#646467;" d="M256,476.273c0-21.746,0-393.707,0-429.722c29.806,0,73.661,2.068,110.228,19.942
	c19.931,9.743,35.542,23.227,46.399,40.078c12.332,19.139,18.584,42.73,18.584,70.113c0,39.951-9.222,64.498-20.897,95.576
	c-3.906,10.394-7.944,21.143-12.127,33.718c-4.7,14.124-7.39,29.544-10.239,45.869c-5.123,29.358-10.419,59.714-28.477,83.574
	C338.664,462.909,304.819,476.273,256,476.273z"/>
<g>
	<path style="fill:#333333;" d="M163.861,171.08c0-11.512,9.228-20.834,20.568-20.834c11.354,0,20.581,9.323,20.581,20.834
		c0,11.51-9.227,20.841-20.581,20.841C173.089,191.921,163.861,182.59,163.861,171.08z"/>
	<path style="fill:#333333;" d="M348.14,171.08c0-11.597-9.288-20.997-20.723-20.997c-11.449,0-20.737,9.4-20.737,20.997
		c0,11.597,9.288,20.997,20.737,20.997C338.852,192.077,348.14,182.676,348.14,171.08z"/>
</g>
<path style="fill:#D8D9DD;" d="M256,403.54c-35.385,0-64.174-28.788-64.174-64.174c0-8.512,2.635-26.257,25.423-81.816
	c12.116-29.541,24.403-56.144,24.526-56.41L256,170.387l14.224,30.754c0.122,0.265,12.409,26.869,24.526,56.41
	c22.788,55.559,25.423,73.302,25.423,81.816C320.174,374.751,291.385,403.54,256,403.54z"/>
<path style="fill:#A0A1A5;" d="M256,403.54V170.387l14.224,30.754c0.122,0.265,12.409,26.869,24.526,56.41
	c22.788,55.559,25.423,73.302,25.423,81.816C320.174,374.751,291.385,403.54,256,403.54z"/>
<g>
</g>
<g>
</g>
<g>
</g>
<g>
</g>
<g>
</g>
<g>
</g>
<g>
</g>
<g>
</g>
<g>
</g>
<g>
</g>
<g>
</g>
<g>
</g>
<g>
</g>
<g>
</g>
<g>
</g>
</svg>
