<?xml version="1.0" encoding="iso-8859-1"?>
<!-- Generator: Adobe Illustrator 19.0.0, SVG Export Plug-In . SVG Version: 6.00 Build 0)  -->
<svg version="1.1" id="Layer_1" xmlns="http://www.w3.org/2000/svg" xmlns:xlink="http://www.w3.org/1999/xlink" x="0px" y="0px"
	 viewBox="0 0 512 512" style="enable-background:new 0 0 512 512;" xml:space="preserve">
<g>
	<path style="fill:#D1D1D1;" d="M350.006,143.922h-31.347c0-11.875-11.784-51.495-33.63-71.097l20.935-23.33
		C335.289,75.808,350.006,124.216,350.006,143.922z"/>
	<path style="fill:#D1D1D1;" d="M414.172,143.922h-31.347c0-19.706,14.717-68.115,44.041-94.427l20.935,23.33
		C425.957,92.427,414.172,132.047,414.172,143.922z"/>
</g>
<path style="fill:#FFAB00;" d="M201.284,512c-92.202,0-167.217-76.042-167.217-169.515c0-93.468,75.015-169.512,167.217-169.512
	s167.217,76.042,167.217,169.512C368.501,435.958,293.486,512,201.284,512z"/>
<path style="fill:#BD7F00;" d="M117.416,500.948c-53.368,0-96.788-52.784-96.788-117.665c0-64.879,43.42-117.663,96.788-117.663
	s96.788,52.783,96.788,117.663C214.204,448.164,170.784,500.948,117.416,500.948z"/>
<path style="fill:#FFAB00;" d="M58.67,436.908c-26.134,0-47.396-24.656-47.396-54.964c0-30.306,21.263-54.963,47.396-54.963
	s47.396,24.656,47.396,54.963C106.067,412.252,84.804,436.908,58.67,436.908z"/>
<path style="fill:#D1D1D1;" d="M453.54,242.205v188.294c0,43.474-34.04,78.998-76.919,81.375L197.791,512
	c1.537,0,3.065-0.043,4.582-0.126c42.881-2.376,76.919-37.901,76.919-81.375V208.856c0-47.048,36.882-86.439,83.899-88.144
	c49.504-1.796,90.349,37.955,90.349,87.065"/>
<g>
	<path style="fill:#EAEAEA;" d="M279.292,294.794c0-48.04,39.083-87.124,87.124-87.124c48.041,0,87.125,39.083,87.125,87.124
		v-87.018c0-48.04-39.083-87.124-87.125-87.124c-48.04,0-87.124,39.083-87.124,87.124L279.292,294.794L279.292,294.794z"/>
	<path style="fill:#EAEAEA;" d="M274.824,85.435c-23.554,0-42.718-19.163-42.718-42.718S251.27,0,274.824,0
		c23.554,0,42.717,19.163,42.717,42.718S298.378,85.435,274.824,85.435z M274.824,31.347c-6.269,0-11.371,5.101-11.371,11.371
		s5.101,11.371,11.371,11.371s11.371-5.101,11.371-11.371S281.093,31.347,274.824,31.347z"/>
	<path style="fill:#EAEAEA;" d="M458.008,85.435c-23.554,0-42.717-19.163-42.717-42.718S434.454,0,458.008,0
		s42.717,19.163,42.717,42.718S481.562,85.435,458.008,85.435z M458.008,31.347c-6.269,0-11.371,5.101-11.371,11.371
		s5.101,11.371,11.371,11.371s11.371-5.101,11.371-11.371S464.277,31.347,458.008,31.347z"/>
</g>
<path style="fill:#D1D1D1;" d="M453.54,242.205v-34.429V242.205z"/>
<g>
</g>
<g>
</g>
<g>
</g>
<g>
</g>
<g>
</g>
<g>
</g>
<g>
</g>
<g>
</g>
<g>
</g>
<g>
</g>
<g>
</g>
<g>
</g>
<g>
</g>
<g>
</g>
<g>
</g>
</svg>
