<?xml version="1.0" encoding="iso-8859-1"?>
<!-- Generator: Adobe Illustrator 19.0.0, SVG Export Plug-In . SVG Version: 6.00 Build 0)  -->
<svg version="1.1" id="Layer_1" xmlns="http://www.w3.org/2000/svg" xmlns:xlink="http://www.w3.org/1999/xlink" x="0px" y="0px"
	 viewBox="0 0 512 512" style="enable-background:new 0 0 512 512;" xml:space="preserve">
<path style="fill:#D8D9DD;" d="M185.494,116.697c-4.383-42.431-19.718-74.13-45.581-94.214C103.851-5.521,60.953,0.459,59.146,0.727
	l-10.35,1.536l-2.55,10.147c-0.302,1.197-7.307,29.728-1.397,64.231c5.58,32.581,23.931,76.799,79.67,102.437L185.494,116.697z"/>
<path style="fill:#D37B93;" d="M137.617,150.597c-34.454-15.847-55.211-42.167-61.694-78.229
	c-2.934-16.322-2.24-31.234-1.128-40.924c11.554,0.473,30.146,3.439,46.172,16.018c18.673,14.656,29.891,39.033,33.344,72.456
	L137.617,150.597z"/>
<path style="fill:#A0A1A5;" d="M326.506,116.697c4.383-42.432,19.718-74.131,45.582-94.215
	c36.061-28.003,78.959-22.023,80.766-21.756l10.351,1.535l2.55,10.148c0.302,1.197,7.307,29.728,1.396,64.23
	c-5.579,32.58-23.931,76.799-79.67,102.437L326.506,116.697"/>
<path style="fill:#9D5B6E;" d="M374.381,150.597c34.454-15.847,55.211-42.167,61.694-78.229c2.934-16.322,2.24-31.233,1.13-40.926
	c-11.554,0.474-30.147,3.439-46.173,16.019c-18.674,14.656-29.892,39.034-33.345,72.456L374.381,150.597"/>
<path style="fill:#D8D9DD;" d="M322.25,91.657c43.668,14.947,92.985,54.58,81.727,158.38c-4.195,38.688-13.334,61.722-23.917,88.394
	c-4.113,10.366-8.365,21.086-12.684,33.641c-2.495,7.256-2.872,28.024-2.343,40.455l0.015,0.67c0,47.04-23.225,70.797-42.71,82.445
	C299.718,509.163,273.778,512,255.999,512c-17.777,0-43.717-2.838-66.336-16.358c-19.484-11.647-42.71-35.404-42.71-82.445
	l0.015-0.673c0.528-12.428,0.15-33.197-2.344-40.452c-4.318-12.554-8.571-23.274-12.683-33.641
	c-10.583-26.672-19.721-49.706-23.917-88.394c-11.258-103.802,38.06-143.434,81.73-158.382c3.323-1.404,30.242-8.172,66.249-8.172
	C292.007,83.483,318.642,90.129,322.25,91.657"/>
<path style="fill:#AEADB3;" d="M147.168,403.807c-0.021,3.138-0.091,6.112-0.202,8.718l-0.015,0.673
	c0,47.04,23.225,70.797,42.71,82.445C212.282,509.163,238.222,512,255.999,512c17.779,0,43.719-2.838,66.337-16.358
	c19.485-11.647,42.71-35.404,42.71-82.445l-0.015-0.67c-0.111-2.607-0.182-5.583-0.202-8.722
	c-26.41-14.242-66.48-22.801-108.832-22.801C213.646,381.006,173.578,389.565,147.168,403.807"/>
<g>
	<polyline style="fill:#333333;" points="293.981,146.286 218.018,146.286 195.993,0 316.006,0 293.981,146.286 	"/>
	<path style="fill:#333333;" d="M183.267,265.979c0-11.513,9.229-20.835,20.569-20.835c11.355,0,20.582,9.324,20.582,20.835
		c0,11.511-9.226,20.843-20.582,20.843C192.495,286.82,183.267,277.489,183.267,265.979z"/>
	<path style="fill:#333333;" d="M328.731,265.979c0-11.597-9.288-20.998-20.724-20.998c-11.45,0-20.738,9.401-20.738,20.998
		c0,11.596,9.288,20.997,20.738,20.997C319.444,286.976,328.731,277.575,328.731,265.979"/>
	<path style="fill:#333333;" d="M202.095,433.633c0-9.938,7.966-17.986,17.756-17.986c9.802,0,17.767,8.048,17.767,17.986
		c0,9.937-7.965,17.992-17.767,17.992C210.061,451.625,202.095,443.57,202.095,433.633z"/>
	<path style="fill:#333333;" d="M309.903,433.633c0-10.011-8.018-18.126-17.89-18.126c-9.884,0-17.902,8.115-17.902,18.126
		s8.017,18.126,17.902,18.126C301.886,451.758,309.903,443.644,309.903,433.633"/>
</g>
<g>
	<path style="fill:#262626;" d="M318.693,186.439v31.347h86.879c-0.173-11.377-1.198-21.799-2.938-31.347H318.693"/>
	<path style="fill:#262626;" d="M308.156,314.171v31.347h69.101c0.939-2.39,1.875-4.749,2.802-7.087
		c3.271-8.244,6.403-16.142,9.295-24.261h-81.199"/>
</g>
<g>
	<path style="fill:#333333;" d="M193.305,186.439h-83.939c-1.74,9.548-2.765,19.969-2.939,31.347h86.878V186.439z"/>
	<path style="fill:#333333;" d="M131.941,338.432c0.927,2.336,1.862,4.696,2.802,7.085h69.099v-31.347h-81.197
		C125.536,322.289,128.669,330.188,131.941,338.432z"/>
</g>
<path style="fill:#BDBDBF;" d="M322.228,91.648c0.007,0.003,0.015,0.006,0.021,0.009c2.567,0.879,5.152,1.842,7.745,2.9l0,0
	c-2.592-1.057-5.179-2.021-7.745-2.9C322.243,91.654,322.235,91.651,322.228,91.648 M322.208,91.64
	c0.002,0.001,0.005,0.002,0.007,0.003C322.213,91.642,322.21,91.641,322.208,91.64 M322.187,91.631L322.187,91.631L322.187,91.631"
	/>
<path style="fill:#A0A1A5;" d="M364.978,411.12c0.016,0.448,0.032,0.888,0.051,1.319C365.011,412.008,364.995,411.57,364.978,411.12
	 M308.008,286.976c-11.45,0-20.738-9.401-20.738-20.997c0-11.597,9.288-20.998,20.738-20.998c11.436,0,20.724,9.401,20.724,20.998
	C328.731,277.575,319.444,286.976,308.008,286.976 M318.693,217.786v-31.347h83.941c1.74,9.548,2.765,19.969,2.938,31.347H318.693
	 M302.868,87.258l-8.887,59.027h-37.98c0,64.24,0,157.986-0.001,234.721c42.353,0,82.422,8.559,108.832,22.801
	c-0.005-0.603-0.007-1.211-0.007-1.823c0-11.426,0.679-24.468,2.551-29.91c3.345-9.723,6.65-18.345,9.881-26.555h-69.1v-31.347
	h81.199l0,0c-2.892,8.12-6.025,16.017-9.295,24.261c10.582-26.672,19.721-49.706,23.917-88.394
	c1.111-10.238,1.632-19.852,1.627-28.88c-0.017-33.088-7.095-58.296-18.109-77.494c-7.909-13.785-17.849-24.476-28.655-32.752
	c-9.221-7.062-19.076-12.371-28.844-16.355c-2.592-1.057-5.178-2.021-7.745-2.9c-0.007-0.003-0.014-0.006-0.021-0.009
	c-0.004-0.002-0.008-0.003-0.013-0.005c-0.002-0.001-0.005-0.002-0.007-0.003c-0.007-0.003-0.014-0.005-0.021-0.008l0,0
	C320.366,90.884,313.446,89.018,302.868,87.258"/>
<path style="fill:#818186;" d="M292.014,451.758c-9.884,0-17.902-8.115-17.902-18.126s8.017-18.126,17.902-18.126
	c9.872,0,17.89,8.115,17.89,18.126S301.886,451.758,292.014,451.758 M256,381.006c-0.001,66.668-0.001,120.492-0.001,130.994
	c17.779,0,43.719-2.838,66.337-16.358c19.485-11.647,42.71-35.404,42.71-82.445l-0.015-0.67l0,0
	c-0.001-0.029-0.002-0.06-0.003-0.089l0,0c-0.019-0.429-0.036-0.869-0.051-1.319l0,0c-0.079-2.251-0.131-4.726-0.147-7.314
	c0.001,0,0.001,0,0.001,0C338.422,389.564,298.353,381.006,256,381.006"/>
<polyline style="fill:#262626;" points="316.006,0 256.001,0 255.999,146.286 256.001,146.286 256.001,146.286 293.981,146.286 
	302.868,87.258 302.868,87.258 316.006,0 "/>
<path style="fill:#A0A1A5;" d="M380.06,338.432c-0.074,0.187-0.148,0.374-0.223,0.561
	C379.911,338.806,379.986,338.618,380.06,338.432"/>
<g>
</g>
<g>
</g>
<g>
</g>
<g>
</g>
<g>
</g>
<g>
</g>
<g>
</g>
<g>
</g>
<g>
</g>
<g>
</g>
<g>
</g>
<g>
</g>
<g>
</g>
<g>
</g>
<g>
</g>
</svg>
